PathFileType	4	(X/Y/Z)	T1_P1_NoVision_Movement_2_0-680.trc
DataRate	CameraRate	NumFrames	NumMarkers	Units	OrigDataRate	OrigDataStartFrame	OrigNumFrames
60	60	4	27	m	60	255	680
Frame#	Time	RHip			RKnee			RAnkle			RBigToe			RSmallToe			RHeel			LHip			LKnee			LAnkle			LBigToe			LSmallToe			LHeel			Neck			Head			Nose			RShoulder			RElbow			RWrist			RThumb			RIndex			RPinky			LShoulder			LElbow			LWrist			LThumb			LIndex			LPinky		
		X1	Y1	Z1	X2	Y2	Z2	X3	Y3	Z3	X4	Y4	Z4	X5	Y5	Z5	X6	Y6	Z6	X7	Y7	Z7	X8	Y8	Z8	X9	Y9	Z9	X10	Y10	Z10	X11	Y11	Z11	X12	Y12	Z12	X13	Y13	Z13	X14	Y14	Z14	X15	Y15	Z15	X16	Y16	Z16	X17	Y17	Z17	X18	Y18	Z18	X19	Y19	Z19	X20	Y20	Z20	X21	Y21	Z21	X22	Y22	Z22	X23	Y23	Z23	X24	Y24	Z24	X25	Y25	Z25	X26	Y26	Z26	X27	Y27	Z27
256	4.266666666666667	-76.80252696933194	3806.9490561536727	-568.5357195436458	268.6516183555642	4000.0123013808497	-533.0115611285989	618.9285877386236	4146.752804267807	-524.63061995412	696.131469594153	4091.272007646967	-476.4767395962288	706.2964036205115	4100.015592355577	-541.2413350122208	656.055737653597	4195.330987838006	-532.22852496492	-104.03296078359905	3886.5011979786264	-344.5982969923316	228.05584005168024	4009.3277909748763	-359.55349488488224	572.0580564386798	4194.840472981462	-383.4640409805753	670.3759672691144	4159.594461093755	-347.08160589927814	639.2877873918804	4219.182218020164	-329.5336647109922	604.3325499120787	4252.893628039235	-422.6265132031172	-669.2528488169522	3679.199796364349	-462.3820119938938	-903.82295037561	3525.7971242245817	-412.22209088880703	-739.4969928820453	3566.961294874221	-404.612984819247	-573.9965068821648	3620.4133455159267	-582.2393525836676	-343.2788117365117	3509.3484588890383	-581.1879051650378	-529.2806969025694	3352.1552086848706	-416.0480718219717	-641.9016064574633	3410.330071985665	-425.63875767283855	-645.85730475854	3391.5690150216906	-401.9306823716399	-614.6614248159336	3361.3032239655126	-389.17124612904445	-624.1757890690401	3815.1089737545763	-359.1597475905119	-400.8977442568452	4003.5677537762244	-336.6263790721402	-135.5941769311068	3992.83903776731	-245.08873238782934	-1.3559513945840107	4002.389549049406	-240.51902456574723	13.79639967641855	3988.4147221152443	-221.82813145643175	6.256215018179138	4011.248640508345	-218.38482933102242
257	4.283333333333333	-76.68506396538207	3806.6862242201946	-568.2813475417745	274.93363462066674	4002.8876962042177	-532.4241749695448	618.8415010544209	4147.081083016368	-524.9264823692225	695.917644959075	4091.3921141278506	-476.74626945981987	711.7192091557195	4121.878309583509	-556.8282646420242	655.0826556609069	4223.908234160432	-539.9023668097417	-103.73574689744424	3886.579959981929	-344.5081772013966	234.10393751739798	4012.6972204481353	-359.09428888821714	584.1620100946925	4197.58679888095	-382.0479555868483	670.5991920410656	4159.268401369199	-346.98321824165504	645.7483726917051	4222.0466999965665	-328.8977183395526	611.8996678383511	4238.788485852553	-409.93096649084526	-669.4658766344011	3679.4795889314105	-462.5380866332765	-903.8817535962592	3526.8265942473004	-418.46733710212163	-739.5370745528521	3567.3688541762494	-404.76570680801655	-574.1598213011821	3620.5528278979505	-576.723480675496	-336.6648584158623	3487.7988508586313	-574.4010440864078	-529.5809877988868	3352.4641289714477	-416.2563635952689	-647.7199205426786	3410.6091109241256	-427.26300317651646	-655.663196613477	3411.3290508803357	-406.50274711094295	-616.8058610768492	3376.413850645884	-402.10540072314205	-624.2816919396289	3815.257045170067	-359.0825514694216	-400.8866277225916	4003.512823204444	-336.5341203296216	-136.1591238966539	3973.1092138482445	-232.35382380173147	3.7789846390865214	4002.52316693443	-239.99970468024006	13.871508269830823	3988.1971544240732	-221.68071506795454	6.398484269126863	4011.4111662821488	-218.35898564071638
258	4.3	-76.56639273399126	3806.6981254210177	-568.3374831016888	274.9842653119782	4002.8440320280893	-532.3354373327642	624.9601284884925	4149.819115970483	-524.2061785610945	702.7575301684063	4095.5899496965276	-478.6154546488191	708.0031353498872	4100.947889902444	-548.1375221282054	656.1379083794164	4195.284274032176	-532.335350936448	-103.75020215259283	3886.5396989945702	-344.5534754166996	229.1272063060003	4012.627625290642	-359.4264842571204	584.0157406609665	4197.586766914046	-382.0282319577665	675.0792735058116	4188.6460851831125	-352.0015672295623	645.4977614027251	4222.592575688026	-328.8625505179835	605.4933699714892	4235.369830740917	-410.5994536207043	-669.2243871882563	3679.300604657319	-462.46546455600014	-903.9263553669957	3526.966849068689	-418.53659717080404	-735.5527514904581	3569.9905883275947	-405.70805907322386	-573.7825216088083	3620.1083050299776	-582.1338150325518	-336.75667695284835	3488.179617007561	-574.6442906846775	-522.119379167457	3332.020012958009	-411.0964493005139	-647.6775790402177	3410.051816552615	-426.78423277767126	-653.4838992355997	3389.589176831749	-402.40443576996995	-614.754360914869	3362.009350119854	-389.3670817750839	-624.2261218467278	3815.3261399757325	-359.1390968866017	-400.5768730893804	4005.821782486968	-342.9894885931841	-140.36097702037745	3989.2721505542722	-243.69502709375456	3.59079467128069	4002.2964615038636	-239.89735099943607	13.544817115838198	3988.1839298793584	-221.63968539999777	6.1540328191902	4011.6237426161874	-218.48859713195486
259	4.316666666666666	-81.76845948879978	3803.3670074120864	-566.8030259991493	274.884779865216	4002.799226267698	-532.3332939014937	624.7767935393307	4149.172807918423	-523.9689550682289	696.099580614883	4091.460432917121	-476.51298349983927	700.0883005850814	4095.59220051013	-538.8918269082811	656.0257579726128	4194.503711520729	-532.0815212106605	-103.2290790038555	3905.1836162757645	-357.60433711492215	228.3523163932507	4009.867250510266	-359.7417031069072	577.6506969387016	4194.249404778253	-382.8439086759587	680.2905997179427	4188.043538054992	-351.3088340495062	645.0257845316876	4251.107440745675	-341.0144522787745	599.8522811346735	4230.749615289144	-408.4972171737602	-673.5162181388595	3704.5921782473665	-468.5917922297691	-903.8903715730225	3525.89627272567	-412.29789227825984	-730.9696381399066	3571.3091843078178	-405.8674569893395	-573.7648271224771	3620.444540314799	-582.29446775505	-341.33274989700027	3485.357374526918	-573.2748645513437	-529.6380576696331	3352.4585966955215	-416.23715779992057	-647.8540501024421	3410.4084477366046	-426.75912898635164	-657.5843763973353	3410.377999187083	-404.9195616628708	-614.8696574670954	3362.282720045126	-389.44063819703536	-624.1669504168203	3815.303737881646	-359.1350735292942	-400.87692807379176	4003.529880809156	-336.53705394548496	-135.57020568733026	3992.7036624869233	-245.03621147481934	3.520470918766789	4003.170514394009	-240.3697306065203	13.414239493968036	3988.6645041504826	-221.90281505917278	6.155909041257192	4011.73448969486	-218.52020644432955
